<?xml version="1.0" encoding="UTF-8"?><svg xmlns="http://www.w3.org/2000/svg" viewBox="0 0 323.46 323.65"><defs><style>.d{fill:#fefefe;}</style></defs><g id="a"/><g id="b"><g id="c"><g><path d="M313.11,0c14.2,16.41,11.17,29.93-4.28,44.7-35.79,34.22-69.9,70.19-105.57,104.54-10.46,10.07-9.98,15.56,.24,25.41,36.25,34.96,71.43,71.02,107.13,106.55,11.05,10.99,19.67,22.86,5.2,36.35-13.23,12.33-24.37,3.81-34.59-6.47-34.91-35.13-70.4-69.7-104.73-105.4-10.84-11.27-17.17-13.34-29.14-.7-33.46,35.35-69.13,68.6-102.71,103.83-14.8,15.53-28.22,18.8-44.66,4.29v-20.2c19.25-31.23,49.1-52.65,73.47-79.15,11.94-12.98,24.52-25.43,37.45-37.43,11.13-10.33,10.87-18.87,.02-29.46-30.07-29.37-59.46-59.42-89.35-88.97C13.16,49.57,5.57,40.78,0,30.3V5.05C1.56,3.24,3.24,1.56,5.05,0H30.3c31.23,19.25,52.65,49.1,79.15,73.47,12.98,11.94,25.43,24.52,37.43,37.45,10.33,11.13,18.87,10.87,29.46,.02,29.37-30.07,59.42-59.46,88.97-89.35,8.33-8.43,17.12-16.03,27.6-21.59h20.2Z"/><path class="d" d="M5.32,.27c.25,3.61-1.6,5.13-5.05,5.05C-.71,.97,.97-.71,5.32,.27Z"/></g></g></g></svg>