<?xml version="1.0" encoding="UTF-8"?><svg xmlns="http://www.w3.org/2000/svg" xmlns:xlink="http://www.w3.org/1999/xlink" viewBox="0 0 346.86 81.12"><defs><style>.d{fill:#e53950;}.e{fill:#cf042a;}.f{fill:#fff;}.g{fill:#fdfefd;}.h{fill:#58585a;}.i{fill:#e6e7e7;}.j{fill:#7e8082;}.k{fill:#e5e6e6;}.l{fill:#add8b2;}.m{fill:#57585a;}.n{fill:#abd2ae;}.o{fill:#444345;}.p{fill:#c2c2c2;}.q{fill:#aad0ad;}</style></defs><g id="a"/><g id="b"><g id="c"><g><path class="l" d="M91.21,35.38c-3.24,1.89-7.22-.76-10.18,2.8l-11.35-1.78c-1.43-3.53-1.52-7.72-5.05-10.22-.99-1.25-1.5-2.8-2.75-3.93-9.45-8.5-23.69-8.11-32.8,.79-3.82,3.73-5.71,8.37-7.14,13.3l-10.21,2.19c-3.25-3.51-7.46-1.36-11.02-3.1l-.7-2.5c3-5.25,6.08-10.45,9-15.74,1.48-2.68,3.23-4.67,6.61-4.31,2.09,.22,2.77-.82,2.81-2.84,.06-2.93-.5-5.91,.46-8.78L29.73,0c1.83,2.86,1.25,5.99,1.09,8.98-.16,3.17,1.03,4.01,4.06,3.98,13.54-.14,27.09,.02,40.63-.12,3.29-.03,5.31,1.17,6.89,3.98,3,5.35,5.59,10.94,9.29,15.89l-.49,2.67Z"/><path class="g" d="M82.7,36.69c2.67-1.11,5.75,.29,8.34-1.36,0,13.96-.12,27.92,.09,41.88,.05,3.17-.67,4.41-3.83,3.74-.05-.25-.05-.49,0-.73,1.97-1.51,2.48-3.22,.76-5.26-1.48-1.66-3.53-.48-5.23-1.03l-.14-37.23Z"/><path class="p" d="M3.46,80.87c.02-.24,.01-.47-.03-.7,27.95-.01,55.91-.02,83.86-.03-.05,.24-.06,.49,0,.73H3.46Z"/><path class="d" d="M21.25,36.77c1.45-5.07,3.35-9.84,7.27-13.67,9.14-8.91,23.43-9.29,32.91-.79,1.26,1.13,1.77,2.67,2.76,3.93-.77,1.14,.06,2.14,.33,3.16,2.69,10.11-.7,20.1-9.2,26.28-4.48,3.26-10.71,4.05-13.55,9.63-.81-.74-1.57-1.48-2.73-1.79-6.8-1.83-11.75-6.06-15.35-12l-2.48-8.05,.03-6.69Z"/><path class="e" d="M41.78,65.31c2.84-5.58,9.07-6.37,13.55-9.63,8.5-6.18,11.89-16.17,9.2-26.28-.27-1.02-1.1-2.02-.33-3.16,3.63,2.56,3.63,6.92,5.19,10.51,0,2.25,0,4.49,0,6.74-.87,2.68-1.74,5.37-2.6,8.05-2.83,4.53-6.23,8.7-11.37,10.41-4.31,1.44-7.3,3.92-9.46,7.7h-1.22c-1.19-1.3-2.29-2.68-2.97-4.34Z"/><path class="i" d="M69.39,43.49c0-2.24,0-4.49-.01-6.74,4.44-.02,8.88-.04,13.32-.06,.04,12.41,.09,24.82,.14,37.23-.97,.02-1.94,.03-2.9,.05-.05-7.21-.12-14.42-.14-21.63q-.03-8.75-8.91-8.82c-.5,0-.99-.02-1.49-.04Z"/><path class="k" d="M21.25,36.77c0,2.23-.02,4.46-.03,6.69-1.37,.03-2.73,.07-4.1,.07-5.63,.03-6.16,.56-6.19,6.2-.04,8.07-.09,16.14-.13,24.22l-2.88-.03c.03-12.4,.07-24.8,.1-37.2,4.41,.01,8.82,.03,13.23,.05Z"/><path class="j" d="M9.46,73.47c9.02,.98,18.03,1.9,27.08,3.24l3.1,.17c14.18-.59,28.36-2.06,42.54-3.48l.38,.07c1.75,.8,3.94-.61,5.5,1.14-1.92,3.14-4.81,3.76-8.31,3.75-25.91-.08-51.83-.02-77.74,0-1.21-2.98,.14-4.31,3.01-4.62,1.42-.15,2.87-.07,4.29-.27h.16Z"/><path class="m" d="M2.01,78.7c25.91-.02,51.83-.09,77.74,0,3.5,.01,6.39-.6,8.31-3.75,1.72,2.04,1.21,3.76-.76,5.26-27.95,.01-55.91,.02-83.86,.03-.59-.41-1.34-.68-1.43-1.55Z"/><path class="h" d="M41.78,65.31c.68,1.66,1.77,3.04,2.97,4.35-10.51,.02-21.02,.04-31.53,.07-.05-2.37-.23-4.74-.11-7.09,.19-3.56-1.56-8.03,.83-10.42,2.07-2.07,6.43-.39,9.77-.7,3.6,5.94,8.55,10.17,15.35,12,1.16,.31,1.92,1.05,2.73,1.79Z"/><path class="q" d="M23.7,51.51c-3.33,.31-7.7-1.37-9.77,.7-2.39,2.39-.64,6.86-.83,10.42-.12,2.36,.06,4.73,.11,7.09-.02,1.49-.05,2.98-.07,4.47-.78-.08-1.56-.17-2.34-.25,.04-8.07,.09-16.14,.13-24.22,.03-5.64,.55-6.17,6.19-6.2,1.37,0,2.73-.05,4.1-.07,.83,2.68,1.65,5.37,2.48,8.05Z"/><path class="o" d="M13.14,73.87c.02-1.49,.05-2.98,.07-4.47,10.51-.02,21.02-.04,31.53-.07,.41,0,.81,0,1.22-.01,7.8,.02,15.6-.06,23.39,.12,3,.07,3.89-1.09,3.79-3.92-.17-4.69-.06-9.4-.08-14.1,4.53-.54,4.54-.54,4.54,3.93,0,6.17-.04,12.35-.06,18.52H13.14Z"/><path class="h" d="M73.06,51.75c.01,4.7-.1,9.4,.08,14.1,.1,2.83-.79,3.99-3.79,3.92-7.79-.18-15.6-.1-23.39-.12,2.16-3.78,5.15-6.27,9.46-7.7,5.14-1.71,8.54-5.88,11.37-10.41,2.09,.07,4.18,.14,6.28,.21Z"/><path class="n" d="M73.06,51.75c-2.09-.07-4.18-.14-6.28-.21,.87-2.69,1.73-5.37,2.6-8.05,.5,.01,.99,.03,1.49,.04q8.9,.07,8.91,8.82c.02,7.21,.09,14.42,.14,21.63-.8,.08-1.6,.16-2.4,.24,.02-6.17,.06-12.35,.06-18.52,0-4.47,0-4.47-4.54-3.93Z"/></g><g><path class="f" d="M240.53,36.57c-.19,1.16-.34,2.26-.56,3.34-.31,1.57-1.04,3.17-.9,4.68,.11,1.15,1.11,2.74,2.1,3.12,.96,.37,2.99-.16,3.56-.98,3.82-5.51,7.94-10.98,7.8-18.21-.08-4.19-1.33-5.72-5.49-5.01-12.74,2.18-22.42,9.36-29.18,20.09-3.66,5.82-1.02,12.58,5.07,15.83,1.1,.59,2.26,1.05,3.35,1.66,4.18,2.32,4.34,6.33,.38,9.06-4.19,2.89-8.47,1.76-10.71-2.78-.41-.82-1.06-1.53-1.6-2.28l-1.24-.03c-.4,1.75-1.43,3.66-1.06,5.23,.83,3.48,2.86,6.31,6.56,7.54,5.82,1.93,14-1.63,17.18-7.55,3.23-6,1.57-12.33-4.18-15.94-1.16-.73-2.24-1.6-3.45-2.21-5.73-2.9,1.63-6.46-.45-9.61-.15-.22,.79-1.59,1.46-1.85,3.57-1.41,7.21-2.63,11.35-4.1Zm-74.06,23.15l-.67-1.24c2.85-2.06,5.87-3.92,8.49-6.23,2.57-2.27,5.24-4.7,6.97-7.59,2.79-4.66,.54-9-4.36-11.09-2.56-1.09-4.5-1.62-6.82,.21-.4,.31-1.83-.17-2.42-.7-2.67-2.38-5.12-.36-7.1,.76-1.22,.69-1.61,3.14-2,4.88-.34,1.5,.32,3.33-.27,4.66-3.56,8.04-7.43,15.95-11.02,23.99-.9,2.01-1.31,4.29-1.58,6.49-.13,1.07,.59,2.25,.92,3.37,1.12-.4,2.66-.48,3.28-1.27,1.97-2.54,3.46-5.45,5.42-8,.94-1.22,2.55-2.75,3.84-2.73,4.54,.05,9.07,.82,13.61,1.07,1.1,.06,2.24-.82,3.37-1.26-.75-1.07-1.27-2.66-2.3-3.12-2.32-1.03-4.9-1.5-7.37-2.2Zm35.29-20.54c.73-4.08-2.56-4.75-4.76-5.8-.8-.38-2.76,1.31-4.01,2.29-3.67,2.86-6.65,6.11-5.31,11.35,.05,.21-.13,.47-.2,.71-2.82,8.71-5.68,17.41-8.45,26.14-1.74,5.5-1.01,6.32,4.73,5.55,.98-.13,2.06-.27,2.88-.76,5.62-3.37,11.24-6.75,16.76-10.29,7.12-4.57,8.63-12.45,10.32-19.7,1.44-6.14-5.61-11.45-11.96-9.51Zm-62.31,37.7l1.3-.2c0-1.7-.08-3.41,.02-5.11,.16-2.73,.04-5.55,.74-8.15,2.2-8.23,4.76-16.37,7.1-24.56,1-3.5-.17-5.79-3.55-7.1-2.94-1.13-4.41,.96-5.69,2.96-1.4,2.2-2.41,4.65-3.82,6.83-6.9,10.64-13.88,21.23-20.81,31.85-.47,.72-.92,1.55-1.03,2.37-.12,.9-.13,2.19,.39,2.7,.48,.46,1.96,.43,2.63,.02,2-1.23,4.47-2.36,5.57-4.24,2.48-4.21,6.6-4.89,10.56-6.1,3.99-1.22,4.87-.52,5.35,3.54,.21,1.75,.81,3.45,1.23,5.17Zm130.78-.44l1.07-.1c.16-.54,.47-1.08,.46-1.61-.13-12.27,4.37-23.53,7.74-35.02,1.19-4.07,.67-6.11-3.13-7.84-3.39-1.54-4.88,1.2-6.24,3.26-6.25,9.44-12.38,18.95-18.43,28.52-2.45,3.88-4.62,7.94-6.78,11.99-.38,.71-.39,2.33,0,2.57,.79,.47,2.24,.71,2.96,.28,2.02-1.2,4.41-2.43,5.55-4.31,2.6-4.3,6.9-4.94,11-6.14,3.54-1.04,4.68-.04,4.97,3.76,.12,1.56,.54,3.1,.83,4.66Zm15.28-6.03c.26-.98,.35-2.17,.86-3.14,1.04-1.98,2.37-3.8,3.47-5.75,2.82-5.04,6.53-9.81,4.29-16.29-.36-1.03,.86-2.61,1.5-4.33,.85,1.09,1.33,1.71,1.81,2.33,.38-.25,.67-.34,.75-.52,.54-1.25,1.03-2.52,1.54-3.79,1.25-3.17,.5-5.73-2.19-6.66-3.02-1.04-4.2,1.44-5.42,3.36-.99,1.55-1.52,3.4-2.42,5.02-5.67,10.14-10.59,20.55-12.47,32.17-.96,5.92,1.19,7.75,7.04,5.98,4.69-1.42,9.54-2.35,14.23-3.77,1.14-.35,1.95-1.79,2.91-2.72-1.07-.63-2.11-1.74-3.21-1.8-4.05-.22-8.11-.09-12.68-.09Zm38.38-24.41c2.82-.42,4.83-.7,6.83-1.01,3.59-.56,7.15-1.35,10.76-1.66,2.46-.21,5.77-2,5.34-3.7-.66-2.6-2.68-3.24-5.24-2.97-2.22,.24-4.5-.02-6.71,.25-5.5,.69-11.29,.3-16.18,3.52-1.26,.83-2.64,2.6-2.62,3.93,.01,1.28,1.56,2.79,2.79,3.74,1.14,.87,2.8,1.03,4.13,1.7,1.97,.99,3.86,2.15,5.78,3.25-2.32,.75-4.31,.5-6.21,.82-1.9,.32-3.86,.95-5.48,1.96-.76,.47-1.18,2.23-.96,3.24,.14,.65,1.7,1.44,2.61,1.43,4.41-.08,8.84-.3,13.23-.76,1.02-.11,2.31-1.15,2.75-2.1,.26-.56-.75-1.94-1.48-2.67-2.79-2.8-5.69-5.48-9.34-8.97Zm-5.02,25.88c3.28,.31,6.47,.93,9.62,.76,1.37-.07,2.65-1.74,3.97-2.68-1.29-.64-2.55-1.36-3.89-1.89-.66-.26-1.47-.23-2.2-.21-6.17,.21-12.52-.7-18.28,2.22-1.25,.63-1.86,2.52-2.76,3.82,1.52,.6,3,1.57,4.56,1.69,1.53,.12,3.11-.88,4.69-.95,3.83-.18,3.83-.08,4.3-2.76Z"/><path d="M91.36,42.1l.34-2.46c2-1.48,3.76-2.54,5.74,.69,1.21,1.98,3.45,3.42,5.46,4.76,.62,.42,2.46,.06,2.96-.57,3.01-3.79,5.71-7.83,8.71-11.63,.96-1.22,2.4-2.27,3.84-2.8,.9-.33,2.6,.13,3.23,.86,.72,.84,1.27,2.67,.82,3.52-1.33,2.53-1.31,6.3-5.43,6.72-.52,.05-1.37,1.41-1.29,2.06,.72,5.76-3.22,9.46-5.96,13.63-3.46,5.28-7.19,10.39-10.77,15.59-1.87,2.72-3.68,5.46-7.64,4.89v-5.25c.57-.75,1.3-1.43,1.67-2.27,2.15-4.83,4.26-9.69,6.27-14.58,.35-.85,.65-2.23,.22-2.81-2.61-3.54-5.43-6.93-8.18-10.36Z"/><path class="f" d="M91.38,42.12c2.75,3.43,5.56,6.8,8.16,10.34,.43,.58,.13,1.96-.22,2.81-2.02,4.89-4.12,9.75-6.27,14.58-.37,.84-1.1,1.51-1.67,2.27v-30Z"/><path d="M240.53,36.57c-4.14,1.47-7.78,2.7-11.35,4.1-.66,.26-1.6,1.63-1.46,1.85,2.08,3.15-5.28,6.71,.45,9.61,1.21,.61,2.29,1.49,3.45,2.21,5.74,3.61,7.41,9.94,4.18,15.94-3.19,5.92-11.36,9.48-17.18,7.55-3.7-1.23-5.74-4.06-6.56-7.54-.37-1.57,.66-3.48,1.06-5.23l1.24,.03c.54,.76,1.19,1.46,1.6,2.28,2.24,4.53,6.53,5.67,10.71,2.78,3.96-2.73,3.8-6.74-.38-9.06-1.09-.6-2.25-1.07-3.35-1.66-6.08-3.25-8.73-10.02-5.07-15.83,6.76-10.73,16.44-17.91,29.18-20.09,4.16-.71,5.41,.82,5.49,5.01,.14,7.23-3.98,12.69-7.8,18.21-.57,.82-2.6,1.35-3.56,.98-.99-.38-1.99-1.97-2.1-3.12-.15-1.52,.58-3.11,.9-4.68,.22-1.08,.37-2.18,.56-3.34Z"/><path d="M166.47,59.71c2.47,.7,5.04,1.17,7.37,2.2,1.03,.45,1.55,2.04,2.3,3.12-1.12,.45-2.27,1.32-3.37,1.26-4.54-.25-9.07-1.02-13.61-1.07-1.29-.02-2.9,1.51-3.84,2.73-1.97,2.54-3.45,5.46-5.42,8-.62,.79-2.16,.87-3.28,1.27-.33-1.13-1.05-2.3-.92-3.37,.27-2.2,.69-4.48,1.58-6.49,3.59-8.03,7.46-15.94,11.02-23.99,.59-1.33-.07-3.16,.27-4.66,.39-1.74,.79-4.19,2-4.88,1.98-1.13,4.43-3.15,7.1-.76,.59,.53,2.02,1.01,2.42,.7,2.31-1.83,4.25-1.3,6.82-.21,4.9,2.1,7.15,6.43,4.36,11.09-1.73,2.89-4.4,5.32-6.97,7.59-2.62,2.31-5.65,4.17-8.49,6.23l.67,1.24Zm-4.15-14.29c2.26,.21,3.91,.83,5.11,.35,1.53-.61,2.7-2.11,4.03-3.23l-1.38-1.64c-1.65,1.55-3.6,1.93-5.82,1.87-.51-.01-1.07,1.41-1.95,2.66Z"/><path d="M201.76,39.17c6.35-1.94,13.4,3.37,11.96,9.51-1.7,7.25-3.2,15.13-10.32,19.7-5.52,3.54-11.14,6.92-16.76,10.29-.82,.49-1.9,.62-2.88,.76-5.74,.77-6.48-.06-4.73-5.55,2.77-8.73,5.63-17.43,8.45-26.14,.08-.24,.25-.5,.2-.71-1.34-5.24,1.64-8.49,5.31-11.35,1.25-.97,3.21-2.67,4.01-2.29,2.19,1.05,5.48,1.72,4.76,5.8Zm-7.17,10.68c-1.86,8.52-9.46,14.09-11.17,23.5,2.35-1.24,4.06-1.78,5.32-2.87,3.28-2.84,6.89-5.53,9.36-8.99,2.61-3.65,4.31-8.03,5.84-12.29,.4-1.12-.91-3.58-2.13-4.4-2.24-1.5-8.53,1.7-9.61,4.51l2.37,.53Z"/><path d="M139.44,76.87c-.42-1.72-1.02-3.43-1.23-5.17-.48-4.05-1.36-4.75-5.35-3.54-3.96,1.21-8.09,1.89-10.56,6.1-1.1,1.87-3.57,3.01-5.57,4.24-.67,.41-2.15,.44-2.63-.02-.53-.51-.51-1.79-.39-2.7,.1-.82,.56-1.65,1.03-2.37,6.93-10.62,13.91-21.21,20.81-31.85,1.42-2.19,2.42-4.64,3.82-6.83,1.28-2.01,2.76-4.1,5.69-2.96,3.38,1.31,4.55,3.59,3.55,7.1-2.34,8.19-4.9,16.33-7.1,24.56-.69,2.6-.58,5.42-.74,8.15-.1,1.7-.02,3.4-.02,5.11l-1.3,.2Zm-8.99-12.59l.3,1.22c2.18-.35,5.11,.01,6.32-1.26,1.14-1.19,.46-4.12,.58-6.28l-1.06-.19-6.14,6.51Z"/><path d="M270.22,76.43c-.29-1.55-.71-3.09-.83-4.66-.29-3.8-1.43-4.8-4.97-3.76-4.1,1.2-8.4,1.84-11,6.14-1.14,1.88-3.53,3.11-5.55,4.31-.72,.43-2.17,.19-2.96-.28-.39-.24-.38-1.86,0-2.57,2.16-4.05,4.33-8.11,6.78-11.99,6.04-9.57,12.17-19.09,18.43-28.52,1.37-2.06,2.85-4.8,6.24-3.26,3.8,1.73,4.32,3.77,3.13,7.84-3.37,11.49-7.87,22.75-7.74,35.02,0,.54-.3,1.08-.46,1.61l-1.07,.1Zm-8.94-11.49c1.38,.2,2.07,.39,2.77,.39,4.14,0,5.57-1.63,4.93-5.65-.09-.54-.4-1.28-.81-1.47-.41-.19-1.31,0-1.62,.35-1.67,1.89-3.23,3.89-5.26,6.38Z"/><path d="M285.5,70.41c4.57,0,8.64-.13,12.68,.09,1.1,.06,2.14,1.17,3.21,1.8-.96,.94-1.77,2.38-2.91,2.72-4.69,1.42-9.54,2.35-14.23,3.77-5.86,1.77-8-.06-7.04-5.98,1.88-11.63,6.79-22.04,12.47-32.17,.91-1.62,1.43-3.47,2.42-5.02,1.23-1.92,2.4-4.4,5.42-3.36,2.69,.93,3.44,3.49,2.19,6.66-.5,1.27-1,2.54-1.54,3.79-.08,.18-.38,.27-.75,.52-.48-.62-.96-1.24-1.81-2.33-.64,1.72-1.86,3.3-1.5,4.33,2.25,6.49-1.46,11.25-4.29,16.29-1.09,1.95-2.43,3.78-3.47,5.75-.51,.97-.61,2.16-.86,3.14Z"/><path d="M323.88,45.99c3.65,3.48,6.56,6.17,9.34,8.97,.73,.73,1.74,2.11,1.48,2.67-.44,.95-1.73,1.99-2.75,2.1-4.39,.45-8.81,.67-13.23,.76-.91,.02-2.48-.77-2.61-1.43-.21-1.01,.21-2.77,.96-3.24,1.62-1.01,3.58-1.64,5.48-1.96,1.9-.32,3.89-.07,6.21-.82-1.92-1.09-3.81-2.25-5.78-3.25-1.33-.67-2.99-.82-4.13-1.7-1.23-.95-2.78-2.46-2.79-3.74-.01-1.33,1.36-3.1,2.62-3.93,4.88-3.22,10.68-2.82,16.18-3.52,2.21-.28,4.49-.01,6.71-.25,2.56-.28,4.58,.37,5.24,2.97,.43,1.69-2.88,3.49-5.34,3.7-3.61,.3-7.17,1.09-10.76,1.66-2,.32-4.01,.6-6.83,1.01Z"/><path d="M318.87,71.87c-.47,2.68-.47,2.58-4.3,2.76-1.58,.07-3.16,1.07-4.69,.95-1.55-.12-3.04-1.09-4.56-1.69,.9-1.31,1.52-3.19,2.76-3.82,5.77-2.92,12.11-2.01,18.28-2.22,.74-.02,1.54-.05,2.2,.21,1.34,.53,2.6,1.25,3.89,1.89-1.32,.94-2.61,2.61-3.97,2.68-3.15,.16-6.34-.45-9.62-.76Z"/></g><image transform="translate(34.38 29.87) scale(.2 .22)" xlink:href="../61D45602.png"/></g></g></svg>