<?xml version="1.0" encoding="UTF-8"?><svg xmlns="http://www.w3.org/2000/svg" xmlns:xlink="http://www.w3.org/1999/xlink" viewBox="0 0 91.69 81.12"><defs><style>.d{fill:#e53950;}.e{fill:#cf042a;}.f{fill:#fdfefd;}.g{fill:#58585a;}.h{fill:#e6e7e7;}.i{fill:#7e8082;}.j{fill:#e5e6e6;}.k{fill:#add8b2;}.l{fill:#57585a;}.m{fill:#abd2ae;}.n{fill:#444345;}.o{fill:#c2c2c2;}.p{fill:#aad0ad;}</style></defs><g id="a"/><g id="b"><g id="c"><g><path class="k" d="M91.21,35.38c-3.24,1.89-7.22-.76-10.18,2.8l-11.35-1.78c-1.43-3.53-1.52-7.72-5.05-10.22-.99-1.25-1.5-2.8-2.75-3.93-9.45-8.5-23.69-8.11-32.8,.79-3.82,3.73-5.71,8.37-7.14,13.3l-10.21,2.19c-3.25-3.51-7.46-1.36-11.02-3.1l-.7-2.5c3-5.25,6.08-10.45,9-15.74,1.48-2.68,3.23-4.67,6.61-4.31,2.09,.22,2.77-.82,2.81-2.84,.06-2.93-.5-5.91,.46-8.78L29.73,0c1.83,2.86,1.25,5.99,1.09,8.98-.16,3.17,1.03,4.01,4.06,3.98,13.54-.14,27.09,.02,40.63-.12,3.29-.03,5.31,1.17,6.89,3.98,3,5.35,5.59,10.94,9.29,15.89l-.49,2.67Z"/><path class="f" d="M82.7,36.69c2.67-1.11,5.75,.29,8.34-1.36,0,13.96-.12,27.92,.09,41.88,.05,3.17-.67,4.41-3.83,3.74-.05-.25-.05-.49,0-.73,1.97-1.51,2.48-3.22,.76-5.26-1.48-1.66-3.53-.48-5.23-1.03l-.14-37.23Z"/><path class="o" d="M3.46,80.87c.02-.24,.01-.47-.03-.7,27.95-.01,55.91-.02,83.86-.03-.05,.24-.06,.49,0,.73H3.46Z"/><path class="d" d="M21.25,36.77c1.45-5.07,3.35-9.84,7.27-13.67,9.14-8.91,23.43-9.29,32.91-.79,1.26,1.13,1.77,2.67,2.76,3.93-.77,1.14,.06,2.14,.33,3.16,2.69,10.11-.7,20.1-9.2,26.28-4.48,3.26-10.71,4.05-13.55,9.63-.81-.74-1.57-1.48-2.73-1.79-6.8-1.83-11.75-6.06-15.35-12l-2.48-8.05,.03-6.69Z"/><path class="e" d="M41.78,65.31c2.84-5.58,9.07-6.37,13.55-9.63,8.5-6.18,11.89-16.17,9.2-26.28-.27-1.02-1.1-2.02-.33-3.16,3.63,2.56,3.63,6.92,5.19,10.51,0,2.25,0,4.49,0,6.74-.87,2.68-1.74,5.37-2.6,8.05-2.83,4.53-6.23,8.7-11.37,10.41-4.31,1.44-7.3,3.92-9.46,7.7h-1.22c-1.19-1.3-2.29-2.68-2.97-4.34Z"/><path class="h" d="M69.39,43.49c0-2.24,0-4.49-.01-6.74,4.44-.02,8.88-.04,13.32-.06,.04,12.41,.09,24.82,.14,37.23-.97,.02-1.94,.03-2.9,.05-.05-7.21-.12-14.42-.14-21.63q-.03-8.75-8.91-8.82c-.5,0-.99-.02-1.49-.04Z"/><path class="j" d="M21.25,36.77c0,2.23-.02,4.46-.03,6.69-1.37,.03-2.73,.07-4.1,.07-5.63,.03-6.16,.56-6.19,6.2-.04,8.07-.09,16.14-.13,24.22l-2.88-.03c.03-12.4,.07-24.8,.1-37.2,4.41,.01,8.82,.03,13.23,.05Z"/><path class="i" d="M9.46,73.47c9.02,.98,18.03,1.9,27.08,3.24l3.1,.17c14.18-.59,28.36-2.06,42.54-3.48l.38,.07c1.75,.8,3.94-.61,5.5,1.14-1.92,3.14-4.81,3.76-8.31,3.75-25.91-.08-51.83-.02-77.74,0-1.21-2.98,.14-4.31,3.01-4.62,1.42-.15,2.87-.07,4.29-.27h.16Z"/><path class="l" d="M2.01,78.7c25.91-.02,51.83-.09,77.74,0,3.5,.01,6.39-.6,8.31-3.75,1.72,2.04,1.21,3.76-.76,5.26-27.95,.01-55.91,.02-83.86,.03-.59-.41-1.34-.68-1.43-1.55Z"/><path class="g" d="M41.78,65.31c.68,1.66,1.77,3.04,2.97,4.35-10.51,.02-21.02,.04-31.53,.07-.05-2.37-.23-4.74-.11-7.09,.19-3.56-1.56-8.03,.83-10.42,2.07-2.07,6.43-.39,9.77-.7,3.6,5.94,8.55,10.17,15.35,12,1.16,.31,1.92,1.05,2.73,1.79Z"/><path class="p" d="M23.7,51.51c-3.33,.31-7.7-1.37-9.77,.7-2.39,2.39-.64,6.86-.83,10.42-.12,2.36,.06,4.73,.11,7.09-.02,1.49-.05,2.98-.07,4.47-.78-.08-1.56-.17-2.34-.25,.04-8.07,.09-16.14,.13-24.22,.03-5.64,.55-6.17,6.19-6.2,1.37,0,2.73-.05,4.1-.07,.83,2.68,1.65,5.37,2.48,8.05Z"/><path class="n" d="M13.14,73.87c.02-1.49,.05-2.98,.07-4.47,10.51-.02,21.02-.04,31.53-.07,.41,0,.81,0,1.22-.01,7.8,.02,15.6-.06,23.39,.12,3,.07,3.89-1.09,3.79-3.92-.17-4.69-.06-9.4-.08-14.1,4.53-.54,4.54-.54,4.54,3.93,0,6.17-.04,12.35-.06,18.52H13.14Z"/><path class="g" d="M73.06,51.75c.01,4.7-.1,9.4,.08,14.1,.1,2.83-.79,3.99-3.79,3.92-7.79-.18-15.6-.1-23.39-.12,2.16-3.78,5.15-6.27,9.46-7.7,5.14-1.71,8.54-5.88,11.37-10.41,2.09,.07,4.18,.14,6.28,.21Z"/><path class="m" d="M73.06,51.75c-2.09-.07-4.18-.14-6.28-.21,.87-2.69,1.73-5.37,2.6-8.05,.5,.01,.99,.03,1.49,.04q8.9,.07,8.91,8.82c.02,7.21,.09,14.42,.14,21.63-.8,.08-1.6,.16-2.4,.24,.02-6.17,.06-12.35,.06-18.52,0-4.47,0-4.47-4.54-3.93Z"/></g><image transform="translate(34.38 29.87) scale(.2 .22)" xlink:href="../61D45602.png"/></g></g></svg>